<svg width="23" height="15" viewBox="0 0 23 15" fill="none" xmlns="http://www.w3.org/2000/svg">
<path d="M1.25 15C0.895833 15 0.599167 14.88 0.36 14.64C0.12 14.4008 0 14.1042 0 13.75C0 13.3958 0.12 13.0992 0.36 12.86C0.599167 12.62 0.895833 12.5 1.25 12.5H21.25C21.6042 12.5 21.9008 12.62 22.14 12.86C22.38 13.0992 22.5 13.3958 22.5 13.75C22.5 14.1042 22.38 14.4008 22.14 14.64C21.9008 14.88 21.6042 15 21.25 15H1.25ZM1.25 8.75C0.895833 8.75 0.599167 8.63 0.36 8.39C0.12 8.15083 0 7.85417 0 7.5C0 7.14583 0.12 6.84875 0.36 6.60875C0.599167 6.36958 0.895833 6.25 1.25 6.25H21.25C21.6042 6.25 21.9008 6.36958 22.14 6.60875C22.38 6.84875 22.5 7.14583 22.5 7.5C22.5 7.85417 22.38 8.15083 22.14 8.39C21.9008 8.63 21.6042 8.75 21.25 8.75H1.25ZM1.25 2.5C0.895833 2.5 0.599167 2.38042 0.36 2.14125C0.12 1.90125 0 1.60417 0 1.25C0 0.895833 0.12 0.59875 0.36 0.35875C0.599167 0.119584 0.895833 0 1.25 0H21.25C21.6042 0 21.9008 0.119584 22.14 0.35875C22.38 0.59875 22.5 0.895833 22.5 1.25C22.5 1.60417 22.38 1.90125 22.14 2.14125C21.9008 2.38042 21.6042 2.5 21.25 2.5H1.25Z" fill="#302C24"/>
</svg>
