<svg width="22" height="22" viewBox="0 0 22 22" fill="none" xmlns="http://www.w3.org/2000/svg">
    <g>
        <path d="M2.57688 20.1391C2.17286 20.3032 1.78904 20.2671 1.42543 20.0308C1.06181 19.7953 0.880005 19.4519 0.880005 19.0006V14.4157C0.880005 14.1285 0.960808 13.8721 1.12242 13.6464C1.28402 13.4208 1.50623 13.2772 1.78904 13.2156L10.5764 11.0001L1.78904 8.7846C1.50623 8.72305 1.28402 8.57946 1.12242 8.3538C0.960808 8.12815 0.880005 7.87172 0.880005 7.58453V2.99964C0.880005 2.54833 1.06181 2.20451 1.42543 1.96819C1.78904 1.73269 2.17286 1.69699 2.57688 1.86111L21.2425 9.86158C21.7475 10.0872 22 10.4667 22 11.0001C22 11.5335 21.7475 11.913 21.2425 12.1386L2.57688 20.1391Z" fill="#302C24" />
    </g>
</svg>